<svg width="636" height="145" viewBox="0 0 636 145" fill="none" xmlns="http://www.w3.org/2000/svg">
    <path
        d="M360.17 81.3683V84.1697C360.17 91.903 360.165 99.6376 360.175 107.372C360.178 109.464 360.957 110.091 362.757 109.15C364.581 108.196 366.223 106.896 367.942 105.743C378.733 98.5083 389.523 91.2777 400.31 84.0403C409.651 77.7737 419.022 71.547 428.306 65.195C430.414 63.7536 432.81 62.311 433.011 59.2843C433.306 54.823 433.709 50.3603 433.761 45.8937C433.809 41.7897 432.753 40.8763 428.83 40.8603C412.562 40.791 396.293 40.7923 380.025 40.8643C376.843 40.8776 373.754 41.6097 371.003 43.3963C369.382 44.451 367.695 45.4003 366.073 46.4523C362.342 48.871 360.063 52.047 360.137 56.7657C360.261 64.9643 360.17 73.167 360.17 81.3683ZM470.227 74.1816C470.227 94.9216 470.229 115.662 470.227 136.4C470.227 139.922 468.93 141.284 465.585 141.284C456.249 141.284 446.913 141.286 437.577 141.283C435.373 141.282 433.814 139.659 433.811 137.331C433.805 127.995 433.809 118.659 433.809 109.322C433.809 108.855 433.89 108.371 433.793 107.926C433.549 106.812 433.399 104.895 432.893 104.784C431.805 104.551 430.354 104.994 429.334 105.618C426.031 107.647 422.849 109.874 419.633 112.042C411.317 117.644 403.014 123.263 394.697 128.862C389.978 132.039 385.287 135.259 380.487 138.308C378.95 139.286 377.027 139.632 375.414 140.516C372.882 141.902 370.21 141.23 367.618 141.244C354.347 141.328 341.077 141.284 327.806 141.284C325.375 141.283 323.489 139.48 323.355 137.023C323.33 136.559 323.351 136.091 323.351 135.623C323.351 103.28 323.389 70.9363 323.309 38.5937C323.299 33.8523 324.697 29.799 327.734 26.2603C333.061 20.0563 339.311 14.9763 346.666 11.387C351.657 8.95099 356.877 7.53099 362.594 7.55233C397.071 7.67633 431.549 7.61366 466.026 7.61366C469.325 7.61366 470.227 8.50432 470.227 11.7617C470.229 32.5683 470.227 53.375 470.227 74.1816Z"
        fill="white" />
    <path
        d="M0.781872 86.0083C0.781872 69.7337 0.899205 53.4577 0.704538 37.1857C0.651205 32.8043 2.10854 29.3283 4.83921 26.1803C10.1512 20.0603 16.3032 14.9683 23.6165 11.4243C28.6832 8.97101 33.9525 7.52834 39.7392 7.54967C74.3552 7.67767 108.971 7.64168 143.587 7.55634C146.133 7.54968 147.195 8.86834 147.219 11.099C147.315 19.8363 147.374 28.5763 147.193 37.3097C147.133 40.171 146.49 40.3883 143.759 40.807C142.782 40.955 141.762 40.831 140.762 40.831C113.349 40.831 85.9365 40.8337 58.5232 40.827C54.9045 40.8257 51.3779 41.287 48.2699 43.275C45.5445 45.019 42.8232 46.803 40.2939 48.8123C38.0285 50.6123 37.2059 53.2457 37.2045 56.1057C37.1979 73.047 37.2005 89.9883 37.2019 106.93C37.2019 109.654 38.1765 110.319 40.4432 108.83C46.8219 104.636 53.1112 100.304 59.4432 96.0377C64.6992 92.4977 69.9699 88.979 75.2312 85.4443C85.8072 78.3403 96.3765 71.2257 106.959 64.1297C109.771 62.2443 112.902 61.267 116.281 61.2537C124.885 61.2163 133.489 61.219 142.093 61.251C145.81 61.2643 147.309 62.5683 147.297 66.3657C147.222 89.7083 147.258 113.052 147.258 136.398C147.258 139.955 145.949 141.283 142.453 141.283H114.839C112.445 141.282 110.887 139.812 110.85 137.362C110.693 127.191 110.566 117.02 110.443 106.848C110.413 104.236 109.593 103.62 107.375 105.012C102.559 108.036 97.8405 111.218 93.1192 114.391C85.2259 119.696 77.3672 125.054 69.4819 130.374C65.5165 133.05 61.5779 135.771 57.5219 138.304C55.9739 139.271 54.0579 139.632 52.4432 140.516C49.9125 141.903 47.2392 141.228 44.6459 141.244C31.3085 141.327 17.9685 141.284 4.62854 141.282C2.04987 141.282 0.783205 140.012 0.783205 137.431C0.781872 120.291 0.781872 103.148 0.781872 86.0083Z"
        fill="white" />
    <path
        d="M544.826 30.4252C550.927 41.6146 556.974 52.7026 563.159 64.0426H561.111H530.505C530.038 64.0426 529.569 64.0066 529.105 64.0492C526.293 64.3079 525.466 65.1879 525.462 68.0092C525.447 74.9439 525.482 81.8799 525.441 88.8146C525.429 90.7666 526.21 92.1906 527.795 93.2519C533.327 96.9572 538.845 100.684 544.387 104.373C547.194 106.241 550.201 107.311 553.686 107.301C579.291 107.235 604.898 107.284 630.503 107.245C634.281 107.239 636.034 108.796 635.962 112.58C635.806 120.647 635.917 128.717 635.911 136.787C635.91 139.299 633.961 141.283 631.509 141.283C601.301 141.284 571.094 141.241 540.887 141.336C537.146 141.345 533.943 140.101 531.011 138.172C519.295 130.457 507.67 122.607 496.022 114.787C494.837 113.992 493.733 113.073 492.585 112.219C489.57 109.969 488.675 106.7 488.67 103.231C488.614 73.0919 488.631 42.9519 488.658 12.8106C488.659 11.6519 488.701 10.3439 489.229 9.38257C489.667 8.58257 490.843 7.69856 491.701 7.68789C501.903 7.57189 512.105 7.59723 522.307 7.62656C524.413 7.6319 525.441 8.93456 525.451 11.4706C525.47 16.3386 525.429 21.2066 525.465 26.0746C525.494 29.8612 526.414 30.2626 529.722 30.3786C534.781 30.5572 539.85 30.4252 544.826 30.4252Z"
        fill="white" />
    <path
        d="M180.113 117.887C159.209 93.5307 157.452 55.7427 178.125 29.0467C178.563 29.4174 179.021 29.7614 179.429 30.1561C185.131 35.6774 190.773 41.2614 196.56 46.6921C197.863 47.9147 197.683 48.9254 196.92 50.0747C194.453 53.788 193.043 57.9387 192.096 62.2174C190.921 67.5187 190.253 72.9214 191.429 78.3134C192.304 82.3201 193.212 86.3627 194.632 90.1947C195.676 93.0121 197.573 95.5121 199.147 98.2521C192.841 104.756 186.539 111.259 180.113 117.887Z"
        fill="#0183EC" />
    <path
        d="M279.584 15.3046C273.365 21.7166 267.397 27.9086 261.35 34.0206C260.914 34.4606 259.76 34.6433 259.166 34.3979C255.386 32.8366 251.734 30.9486 247.909 29.5219C245.665 28.6859 243.194 28.3913 240.797 28.0499C231.825 26.7699 223.389 28.7606 215.257 32.4326C213.909 33.0419 212.48 34.4393 211.317 34.2246C210.053 33.9926 209.045 32.3166 207.945 31.2499C202.536 26.0086 197.133 20.7593 191.52 15.3086C202.124 7.16727 213.906 2.18994 227.077 0.828603C246.333 -1.1634 263.88 3.35927 279.584 15.3046Z"
        fill="#0183EC" />
    <path
        d="M194.031 130.921C200.561 124.191 206.957 117.6 213.29 111.071C220.678 114.589 228.058 117.331 236.303 116.879C244.574 116.425 252.314 114.371 259.359 109.935C260.086 109.477 260.667 108.868 261.593 109.777C267.873 115.935 274.198 122.047 280.515 128.179C257.658 147.597 221.289 150.616 194.031 130.921Z"
        fill="#0183EC" />
    <path
        d="M279.919 69.5762C279.448 62.6388 277.636 56.0988 274.242 50.0015C273.984 49.5388 273.999 48.5348 274.32 48.1975C280.435 41.7895 286.615 35.4442 292.79 29.0762C310.24 49.7575 313.796 87.7188 293.748 114.438C287.095 107.991 280.463 101.565 273.766 95.0762C277.611 88.9095 279.386 82.1002 279.919 74.9162C279.919 73.1362 279.919 71.3562 279.919 69.5762Z"
        fill="#0183EC" />
    <path
        d="M557.156 30.6595C558.034 30.6595 558.744 30.6582 559.455 30.6595C566.187 30.6715 572.919 30.6502 579.651 30.7115C583.524 30.7462 586.807 32.0048 589.803 34.7222C596.142 40.4662 600.663 47.3582 603.779 55.2128C604.459 56.9275 604.598 58.9262 604.646 60.8022C604.695 62.7288 603.004 63.9915 600.376 64.0182C592.312 64.0982 584.247 64.0848 576.184 64.0542C575.702 64.0515 574.996 63.6942 574.775 63.2915C569.018 52.8262 563.311 42.3315 557.602 31.8395C557.451 31.5608 557.374 31.2422 557.156 30.6595Z"
        fill="#0183EC" />
    <path
        d="M223.699 72.2209C223.425 64.8769 229.713 59.9462 235.559 60.2062C242.488 60.5129 247.388 64.5076 247.543 71.9729C247.696 79.4196 242.94 83.9836 235.511 84.2809C229.503 84.5209 223.392 79.4449 223.699 72.2209Z"
        fill="white" />
</svg>